<mxfile host="65bd71144e">
    <diagram id="tnSbN0do_7VgiUvnJkIk" name="Page-1">
        <mxGraphModel dx="197" dy="792" grid="1" gridSize="10" guides="1" tooltips="1" connect="1" arrows="1" fold="1" page="1" pageScale="1" pageWidth="850" pageHeight="1100" background="none" math="0" shadow="1">
            <root>
                <mxCell id="0"/>
                <mxCell id="1" parent="0"/>
                <mxCell id="2" value="" style="shape=image;verticalLabelPosition=bottom;labelBackgroundColor=default;verticalAlign=top;aspect=fixed;imageAspect=0;image=data:image/png,iVBORw0KGgoAAAANSUhEUgAAAo8AAAD3BAMAAACOUKPNAAAACXBIWXMAAA7EAAAOxAGVKw4bAAAAB3RJTUUH1QgTAAI073kCuwAAAAd0RVh0QXV0aG9yAKmuzEgAAAAMdEVYdERlc2NyaXB0aW9uABMJISMAAAAKdEVYdENvcHlyaWdodACsD8w6AAAADnRFWHRDcmVhdGlvbiB0aW1lADX3DwkAAAAJdEVYdFNvZnR3YXJlAF1w/zoAAAALdEVYdERpc2NsYWltZXIAt8C0jwAAAAh0RVh0V2FybmluZwDAG+aHAAAAB3RFWHRTb3VyY2UA9f+D6wAAAAh0RVh0Q29tbWVudAD2zJa/AAAABnRFWHRUaXRsZQCo7tInAAAAMFBMVEX///8AAAAQEBAhISExMTFCQkJSUlJjY2Nzc3OMjIycnJytra29vb3Ozs7e3t7v7+/BgwTHAAAAAXRSTlMAQObYZgAAEABJREFUeNrt3W1sU9cZAOD3OnHi66973aRkaV0IdNoUSIiZtnbAoOkU06SB4bS4XSgrUZu1S6cVl3Za4UeXlVXVkKbefBBGJ4ah0H10P9wE/lSVdg3s16rOsLY/Nk0y6zZt0tSaENiQqnbnPddJ/BEn99rXTmK/B8Uh18f3+Dw+vh/n3vMe8FAyIwHIQKnwJBAkQRIkQVIiSIIkSIKkRJAESZCUckAKKv9lUdIXpf792qA5ZTeXJ6Tg2TEDWa2KsXTI1L83s5/b+EsXStXq9LrrT2Q/e1z71cB+TpYTpPr4DGSyWaY30pnkZT+emB7I6VcKquuxRK5Mt8RB2lBWkENgCyYE9f0HYz1+QRX9CjTeuwXOdgqjdTFBbez/IcvFllrr2Ve7sZW9lOVsWPPql8IgduxzdAw2frsLF8FIXXx0W+JsJ0CPH1/AQatCR6F2iK3JFdwCDWt+VRdnHwjLyVpkCMRnsOjkutgLGppZZmW5Qr7rhzF7SFB/I7YLqqCOwQCsSDwOLZKwt8YnqLfCkywXLsUWKT+XEIDlbBAbxCYYSRy1qIn6xNQgWyRucYv3iKEWiQPiC/C32DSemLyyr8ZnD49Cg9hYEwIvy8lWdcdKmIpi0dq6eLlvsczxZbuN3AmbpSZW55syQm6GCUYWhV1xQXWyJbfDON8+TmiQ1e3spTdlL+C/jTBp/Qbbbjqa2KKqMFQpUtOuOAfEF3BItvworgmkIfA6ZTEAXpYTV/UwHI5i0dq6tBJY5mX71X6nHeqDAUH91xscEhHx50arBon/B9CWshdJdwvAcmqVrw8GpcdiXnDK/MUg+IOBG60ckL+M/bb5xPYtuCb34TenIbVNqBz91BfForV1aSWwzMt3G9kL6/BXtz2tRcKh6RZ5OrVFwuWTwHJqVV/Llth8t4O9nS1i7cyCTe1QWoucVKR1AVxTdeRkRou0Hg1HsejUFskyL1/I8/EjCfY9bpySLRHcRvYipKSOa5Ar2N+4jexNQjo9wHJqlR+Juz9xNNUnroXZInGr+99b4WOVbQksEf4Ctm5nRwJeVPmaTtw7Dclysu+/7LyTfV6saG1dyRJeVJcvpFWx+RVBPdW90r7tiip2KAjp6u/WID+3C3ej2lL+opPAcmqVF/0DH3REcK/NFsFwfWz0oeP93QD2bXF8Adv+3soa3wSCyvbPvxlPQmJOXNUeBsmKTq5LK2GibE8RvQXnOGjkjR0kyFzJ1W7gfRnKXGGQD8UMvC9Dman3h7rRKBEkQRIkQVIiSIIkSIIkSIIkSIKkRJAESZAESYkgCZIgKREkQRIkQVIiyLKDFEoeHkEuU8iSNxOCJMglDlmM4CoVCSkXrU4ESZAVDSmU9tCnjCFL2xoJkiDLAdKiEKRRSI+nK3v4c3JsuhACsMsEqQvSCx+05Xy76wGuEaReSLhbDMEBHJj+/oMxYf/aH20FQRU3bGXv9QcAR2WxY5+wv/m1tQCjvSDsP8YyE+SckMOONmk9DkzHceqhIeVJBjkSi7P3eikubZdHEkfZ0tAwiH01ivDdN1hmgpwTcgg2iSE+DBjHqUfhCIPcxN+uNWT7rbwRJnGssKBWRRw+QcXMBDkn5CEYrYohJB9qrkHyMWyCc9WHTrk+GNQgtaGtmJkg54KUmmHyHB+Yzsepp7ZI6D3olNfiuOGUFskyE+RckBd3gq2FQzZOzUCOxD/C93re55RH4m4NUuyzKhgJoYUg5zyO3A3g8HHIU90rpyHF1TvwvVrZt1n0D2iQMNqFkRBYZoLMUdfasIHVZmQmyJT0npHVvkcH5Lkgrd8zsNbMzARJvT8ESZAEmR+k4CnS1d9MyKIVlBNSKOl1baEobXEuyGIVtFRaJEESJEESJEESpJFkz75Eezg/SM8tL+QuZjv7OSObAjl3pO1kwnDc0vCtsdJDTiTSAVhtp8J5QXql/fGcxXgB3K+aBDlfpG2MJes4MeUrOaTUkg6AtXW15QcJ1hBekYSRuit49YJfuISX9mJsbWt9AMBpFiRUhTCEtrhhK3a3apG2Ma43K6jHj1lEueSQYnsqQFyr7UCekGITXpEUt7j5ZSB+4VLs+6Wwr8bHAx6aByk2YQjtkVicQ/JI2xjXex8G8eZdWYGSQ1qVVIBkbUfzhZTx+k9VGLTradgpXxWZ5BGxTYaUMWDxpmSIaR5Flsf15lfxWBpOlBySh6+eAUjWNponpM2XrMsspOAPFgHS5ksG6Z6F5HG9k5D2VlgcyBmAAiGrlKwWaYlAESAnlawWyeN6JytxKlZ6SIuaCpCs7UR+kO7nEnhFUtzq/rDvehJS3Ms3mFhP8yCdHQkMoT0S/+guqScJyeN6O2X2wc3bIIsGWTOYCpDc2byc33FkHTu8G+1iW6j6v27YmISEH/dyyNNPmweJkbYxhLa4esef6qZnI+BxvZ2yfVscLs03oKtYkHZfKkCM11ZqoTMb46k3e5EtUJGQnnRIN+757V/VveLratai04nKhEwf5vD3dvZQFdF/apOd9XdQoZBIObMg/DZkTx1FvT86IVN3UyL76enk56J+hSCNQs5S/oO3SDwX5XNAEeS8kPNc9tvPIfHIf3MhM5UYh7ytkIobOY4MF9KPLeQ80slwdDbGAGankSohpL75+0yAvKOYkDMLrS8oi9QiF56/zyTI4RjIs1P+2YKJs53C2C4FF4kbtrKC84dMWRiNh1TQppEam+tou3iQC8/fZxJk7U6QZ6f8G7OHWiRhp9SJi0ZicVZwvpBpe5+HYVTBW3PxXLSjpHvthefvMwkSOiBlyr/NOC8g226O46JNgAXnB5m10Gnu3k0/5ILz95kFeS2UMuVfPc4LyAqI8kWABZsECYsFufD8fSZButamTPmHHXSHhAicxkWsRa7Nd2ezhCAXmL8vbhYkRFOm/DuS+FgdZ9vITbhoJP4RK3jZQy4wf59iGqQ9Zco/m/94fzfutXGRuHoHK3iZQ86VvMaKy/vMRn/nAkEWHVJOebScSn9uZur5zCcIcv7jSAs7J5wmw7ttjs9ARhcHcsl3WsDc/ZFWK0BHeI7GgE+YB+kpn3vIc5xr19aC8wAe957ttNYHGpq9eDsMjH5TZk9QizTQ+yNJUPvuSvafFom1yBVvefF2GLHPKrMnCDJzlfO32Q/hO+xxV1yb1Bsv9VZFHHIBBZYvJMzbHznkqWOPN1pnIfkFeoLUCTlT1za4itcFD6W0yLC9CJCCucHeckMWpaBckLNXEe0BqOkDSR1nJ/NJSDFwnSB1Qab2R1oVsK8CV383nH46CSk9O0CQOiDlhU8RHU1FgDR3qzXPNtK8s19Zx/uepzQX1CgEaQKk3d8FBGkCZHF6fwiSICsb8rRS3pCu+0oDKbWVeYusjpQG0hkoc0ihRF/tia984t8LF4OJMoV0ff1bzkIrqAuyRrkcH3OtF/vKtUWOQcEV1AVZrQ5AtEZxyuUK+ROYrqBgznWAHJBCwgtR3iEomH3FIbsPiJfBH2QT/tYHuQemK2hGi4SckBdYOWMY69KkFikstRa5svAK6oI8AwNSS40yqZYppFsuvIK6IH8CNzoiUn83lCmkI1B4BXVBmn2KuOS+2uaeIhIkQRIkQS4xyHwDKBFkRsoIoIRRnHQFUCo15B4AZ/v9JYQ0OF47M4ASRnHSFUAp+byVHUBezOcqpVHIVQBi3wlbpHiQGQPfDY7XzgqghFGcBvRDCuxzG3NFCqmgLkgX+6xqFRDiRYTkp8X5jtfOCqCEUZxG9UNeZj8HoKAK6oJ07F4Tqf5D4IHdRYVMHfhucLx2VgAljOIU1Q957tQ62G4NF1JBXZBil+gTbg6eg+JCpg58NzZeOyuAEgbNMQA5qozAKkvsXLG3kdaAU75sVY4VHXKW0th47awAShjFaUI/ZBCirqYrcMy8e3TmhsQ3eKZKfQrMufF6vnebrK3B8dqZAZR4FKeX9UOyD8se+D08ZVqLhLkhr0Lt4DEBdpjTIucsLeODNDheOzOAEkZx0hVASXtekuF5UTlaUAV1QZ5PjCd2Xyjw4FwHpJz3eO18AyhpzzvbHG3W8IGCKqgL8kjwaWgdwyHUxYSUCxivnW8AJe15MfhQ3BLbXlAFdUGae4o4N6ScUZqx8dr5BlAq1ini4kGWWe8PQRIkQVYgpDt1X9A+TpD5QqbelCb2/YUg84UUB2f/X6uY+9WWKwLS/f2vVSvu/qDSte6f/vutcASsF9Xdzh09gzcfGDTrgFyuAMi/qVJN7Frsktr42RaXV3TfCReFRKv9vk9Xdem/72jhU8SU/siROlXrbnV5GssIks9G/zwITl/tIMjW2o2JPZfdsu0ed9fge4p5kCn9kX8UfeBajWfMoXJqkS3aw4Q9YFEd7eKVX78dOOMMWMOO/f6fGu5Zk+fr/Znp/nE2wdQQGIqzuwwgvdrDE6IiqDV94rPOl2LHxJAlLg6pxnc2sqCnR/RiWNqO/ZDX6yNlBNkL8Z/DRnGjNVKljCjO26Uvwu5a5QpYLygu45Cgo0XaHjhRHeYdujfLaRv5vj+yDsbXPWKJOdaci7DDyfXQWq2eA8t/vvykqZCzz0nBIY+HfxNepFNEo5Bpzw1B8hLDMEEag0wr7TO3HyFt4V+4mgnSCGTGKeJrt7yCkNWvvFinEGQBkNSNRpAESZDLEfKMjyDNgHT9rI8gC4CsVl2P9u8KVw9HahSCLADSqlgnYpdU4QROs1toGKVKhhQHX3+e/XmhoHtatRapE9KdNgQ97XY0r0VZtpCOvTtb4CycATgPRYLMuGbD7yHPASnGli2ku1nxwhN4H+aRYkFmXLPh95DngFzOe+0vYG8kPJK86FAcyOx7yAEndukEm/8ZaGh2BbdcBHtYDHkFtfHeLTgBzDKEfBR7I6EVoLuYkJn3kANO7HIYxqAHVrxlD49ejVgD1WEGuSLxOE4AU9FnNrK+HnJ+DzngNBp4XzKfmEQaqgn9eeXVhFe7I3rzvBPLVAKkrrvY+T3kMxeL8EZy9+E37W3KwOuQhKwPBiocEvS0SH4PebJFboKTDBLneVmrnD44Dbmuwjst5odMv4cccGKXw/ASzj4NOM/L/pjFNw15JBEnyByQmfeQA8493Qn/vWuIQeI8LxN4v0AS0qZrAs9KhMy496c0c36VH2SFdaMRJEESJEESJEESJEESJEEusTObjNGxria45FEIMp9z7bTSLss8lAJB5tX7M/us1CXDZoLMF3K2g3zqHVnq6SbIvCGnKe934rTytI3MDakvYI7I/qOCrYkgc0LC/C1ypjgcmicSZJ6Qs+FqGKQYv0xf7bwgU8PVMMj/rd5IO5s8IGU6szEFkk4RCZIgCZIgCZIgCZIgCZIgCZIgCZIgCZIgCZIglyykx7S0AKR5BemB9JieFoAs1ue2OAWVIhEkQRIkQRIkQRLkcob0FO9oa3EKWiRISgRJkARJiSAJkiAJkhJBEiRBEiSlwiA9lEzpLvk/HTFT99QvSfkAAAAASUVORK5CYII=;imageBackground=#FFFFFF;imageBorder=default;" parent="1" vertex="1">
                    <mxGeometry x="40" y="60" width="636.44" height="240" as="geometry"/>
                </mxCell>
                <mxCell id="4" value="VLISP STORAGE TYPE" style="rounded=0;whiteSpace=wrap;html=1;sketch=1;hachureGap=4;jiggle=2;curveFitting=1;fontFamily=Architects Daughter;fontSource=https%3A%2F%2Ffonts.googleapis.com%2Fcss%3Ffamily%3DArchitects%2BDaughter;fontSize=20;" parent="1" vertex="1">
                    <mxGeometry x="40" y="10" width="240" height="40" as="geometry"/>
                </mxCell>
                <mxCell id="5" value="" style="shape=image;verticalLabelPosition=bottom;labelBackgroundColor=default;verticalAlign=top;aspect=fixed;imageAspect=0;image=https://help.autodesk.com/cloudhelp/2023/ENU/AutoCAD-AutoLISP/images/GUID-5B5471E8-2F64-473B-A8C3-21199571DF02.png;" parent="1" vertex="1">
                    <mxGeometry x="40" y="300" width="635.14" height="1090" as="geometry"/>
                </mxCell>
            </root>
        </mxGraphModel>
    </diagram>
</mxfile>